<?xml version="1.0" standalone="no"?>
<!DOCTYPE svg PUBLIC "-//W3C//DTD SVG 20010904//EN"
 "http://www.w3.org/TR/2001/REC-SVG-20010904/DTD/svg10.dtd">
<svg version="1.0" xmlns="http://www.w3.org/2000/svg"
 width="722.000000pt" height="722.000000pt" viewBox="0 0 722.000000 722.000000"
 preserveAspectRatio="xMidYMid meet">
<metadata>
Created by potrace 1.11, written by Peter Selinger 2001-2013
</metadata>
<g transform="translate(0.000000,722.000000) scale(0.100000,-0.100000)"
fill="#000000" stroke="none">
<path d="M3373 7132 c-132 -129 -197 -212 -399 -514 -75 -111 -149 -219 -163
-238 -125 -168 -283 -334 -409 -430 l-72 -55 28 -15 c132 -71 218 -179 300
-375 43 -104 73 -166 89 -186 12 -15 19 -12 63 31 240 231 664 428 932 434 82
1 82 1 90 31 10 33 11 173 3 250 -26 242 -103 547 -208 826 -40 104 -140 314
-155 323 -5 3 -50 -34 -99 -82z"/>
<path d="M5762 6506 c-384 -228 -508 -342 -715 -661 -45 -70 -105 -144 -164
-204 -51 -52 -93 -95 -93 -96 0 -2 23 -12 50 -24 154 -66 350 -168 370 -191 3
-4 26 -21 53 -39 53 -36 162 -143 205 -199 15 -21 30 -39 33 -42 12 -10 105
-177 129 -233 28 -65 44 -74 92 -54 51 21 82 65 160 226 83 169 135 249 179
275 l32 19 -6 111 c-4 61 -9 127 -12 146 -23 133 -39 219 -74 390 -22 107 -42
211 -45 230 -2 19 -9 69 -15 110 -13 88 -19 160 -22 253 -1 37 -5 67 -8 67 -3
0 -70 -38 -149 -84z"/>
<path d="M2128 5726 c-124 -93 -244 -190 -343 -276 -72 -63 -370 -363 -432
-435 -348 -407 -601 -839 -759 -1300 -40 -115 -95 -305 -108 -375 -3 -14 -7
-36 -10 -50 -13 -58 -33 -175 -41 -245 -4 -27 -8 -61 -10 -75 -17 -112 -23
-464 -11 -585 3 -33 9 -85 12 -115 5 -47 15 -119 40 -263 8 -51 65 -260 91
-337 253 -750 776 -1316 1485 -1606 62 -26 125 -50 140 -55 l28 -8 -19 37
c-122 240 -192 410 -216 520 -11 56 -11 63 2 58 40 -16 464 -141 508 -150 6
-2 28 -8 50 -14 22 -6 51 -13 65 -16 14 -3 95 -21 180 -40 85 -19 169 -37 185
-40 17 -3 69 -14 118 -25 48 -10 87 -16 87 -13 0 4 -17 25 -38 47 -103 109
-272 336 -387 520 -85 134 -255 471 -314 619 -142 360 -248 782 -286 1141 -4
33 -8 76 -10 95 -26 231 -25 667 0 930 41 407 144 872 273 1225 20 55 37 102
38 105 0 3 4 14 9 25 63 156 62 148 40 275 -40 228 -102 378 -200 491 l-32 35
-135 -100z"/>
<path d="M3897 5564 c-1 -1 -38 -5 -82 -8 -175 -14 -394 -80 -558 -169 -604
-330 -981 -1125 -981 -2072 0 -120 8 -271 19 -355 2 -19 7 -55 10 -80 9 -70
56 -293 66 -312 6 -10 7 -18 5 -18 -3 0 2 -19 10 -42 9 -24 17 -50 19 -58 24
-97 116 -299 188 -411 89 -140 152 -205 322 -337 23 -18 163 -81 205 -92 71
-19 80 -21 170 -27 l85 -5 -75 73 c-396 387 -578 1080 -455 1724 61 321 245
678 482 937 l52 56 83 -66 c46 -37 88 -71 95 -77 28 -23 42 -33 118 -86 344
-236 685 -373 1030 -414 33 -4 69 -9 80 -11 10 -2 86 -6 168 -10 l149 -6 -18
34 c-26 52 -99 153 -188 262 -119 145 -175 234 -213 336 -7 19 -13 36 -13 38
0 7 141 -76 225 -131 245 -162 377 -307 566 -621 43 -73 79 -139 79 -147 1
-43 53 124 66 209 3 20 7 42 9 49 10 30 19 170 19 288 0 157 -7 219 -40 383
-12 61 -77 238 -114 313 -106 211 -282 412 -475 541 -233 156 -581 281 -842
304 -75 6 -261 12 -266 8z"/>
<path d="M6084 5027 c-23 -34 -53 -84 -67 -112 -45 -91 -111 -298 -131 -410
-36 -209 -42 -249 -51 -350 -3 -33 -8 -76 -10 -96 -3 -20 -7 -72 -10 -115 -3
-44 -7 -104 -10 -134 -3 -30 -7 -91 -10 -135 -2 -44 -7 -123 -10 -175 -19
-329 -31 -504 -40 -600 -2 -25 -7 -76 -10 -115 -3 -38 -8 -81 -10 -95 -3 -14
-7 -52 -11 -85 -9 -85 -11 -105 -18 -145 -3 -19 -8 -51 -11 -70 -44 -347 -170
-784 -307 -1065 -68 -139 -192 -340 -253 -411 -5 -6 -26 -31 -45 -55 -104
-131 -306 -312 -462 -413 -49 -32 -88 -58 -88 -60 0 -1 33 3 73 10 39 7 90 15
112 18 22 3 51 8 65 11 14 3 41 8 60 11 50 8 164 42 197 59 15 8 32 15 37 15
14 0 195 122 260 175 31 25 56 40 56 33 0 -30 -51 -198 -72 -239 -12 -24 -54
-76 -93 -116 l-70 -72 35 -4 c48 -5 283 0 348 7 46 6 79 12 180 32 45 9 187
56 200 66 6 6 12 8 12 4 0 -11 122 54 210 112 108 72 259 223 331 332 62 94
134 233 168 325 13 33 29 76 36 95 13 33 43 136 50 170 2 8 10 44 18 80 8 36
20 101 27 145 6 44 13 94 16 110 5 32 9 80 20 210 12 154 6 638 -10 722 -2 10
-7 52 -10 93 -10 107 -21 196 -30 245 -2 11 -7 49 -11 85 -4 36 -8 67 -10 70
-2 3 -6 24 -9 46 -4 22 -8 51 -11 64 -3 14 -9 50 -15 80 -6 30 -12 64 -14 75
-2 11 -12 56 -21 100 -100 481 -283 1036 -462 1395 -77 155 -70 151 -119 77z"/>
<path d="M3301 3968 c-129 -270 -235 -587 -265 -793 -4 -23 -8 -50 -10 -60
-27 -141 -28 -401 -1 -570 42 -267 183 -515 371 -655 107 -79 273 -144 439
-170 79 -13 264 -15 346 -5 29 4 65 9 79 10 48 5 146 26 240 51 52 13 102 26
110 28 48 13 198 71 238 93 65 35 144 85 160 100 7 7 17 13 21 13 11 0 171
158 201 198 14 19 30 39 36 45 21 24 96 159 124 225 70 167 98 312 98 516 -1
87 -4 175 -9 195 -4 20 -13 63 -19 96 -14 74 -47 186 -71 241 l-17 41 -63 -3
c-716 -26 -813 -24 -1034 26 -241 53 -541 211 -833 437 l-82 64 -59 -123z
m429 -544 c89 -21 163 -85 208 -183 24 -50 27 -68 26 -161 0 -121 -5 -143 -43
-225 -45 -96 -131 -171 -218 -189 -85 -19 -187 28 -254 117 -147 195 -61 570
147 642 36 12 79 12 134 -1z m1308 -139 c92 -50 140 -155 140 -302 -1 -243
-98 -397 -258 -407 -86 -5 -146 12 -175 50 -127 166 -111 430 36 589 77 84
181 112 257 70z"/>
</g>
</svg>
