<?xml version="1.0" standalone="no"?>
<!DOCTYPE svg PUBLIC "-//W3C//DTD SVG 20010904//EN"
 "http://www.w3.org/TR/2001/REC-SVG-20010904/DTD/svg10.dtd">
<svg version="1.0" xmlns="http://www.w3.org/2000/svg"
 width="756.000000pt" height="756.000000pt" viewBox="0 0 756.000000 756.000000"
 preserveAspectRatio="xMidYMid meet">
<metadata>
Created by potrace 1.11, written by Peter Selinger 2001-2013
</metadata>
<g transform="translate(0.000000,756.000000) scale(0.100000,-0.100000)"
fill="#000000" stroke="none">
<path d="M0 3780 l0 -3780 3780 0 3780 0 0 3780 0 3780 -3780 0 -3780 0 0
-3780z m3580 3540 c167 -331 311 -878 309 -1175 -1 -153 1 -150 -97 -151 -257
-5 -643 -179 -908 -410 l-77 -67 -18 24 c-10 13 -39 76 -64 139 -83 205 -157
306 -283 388 l-61 39 47 34 c129 92 282 248 408 416 30 40 127 179 214 309
184 272 250 355 374 477 104 101 92 103 156 -23z m2393 -647 c8 -160 25 -273
88 -583 54 -268 79 -437 79 -533 0 -60 -2 -63 -35 -86 -46 -31 -91 -100 -168
-261 -73 -153 -113 -212 -158 -235 -52 -28 -70 -15 -114 82 -134 295 -344 486
-715 648 -57 25 -105 47 -107 48 -1 2 39 46 91 98 68 69 122 138 201 259 126
192 221 294 390 419 96 70 418 271 436 271 3 0 9 -57 12 -127z m-3631 -670
c48 -51 106 -153 138 -241 32 -87 79 -300 80 -358 0 -16 -16 -70 -35 -118 -55
-135 -132 -365 -176 -526 -262 -957 -247 -1928 46 -2805 168 -506 426 -964
755 -1343 39 -46 70 -85 68 -86 -4 -5 -474 97 -625 135 -71 18 -229 62 -353
99 -124 38 -226 67 -227 66 -2 -1 9 -45 23 -96 28 -107 79 -230 165 -401 l59
-119 -71 26 c-513 185 -969 545 -1271 1002 -240 365 -392 796 -444 1263 -22
201 -15 597 16 794 57 375 174 744 342 1079 294 586 744 1110 1338 1555 74 56
137 101 140 101 4 0 18 -12 32 -27z m2053 -267 c547 -128 928 -401 1133 -811
163 -326 203 -762 106 -1138 -32 -125 -25 -127 -118 29 -124 208 -198 307
-320 430 -111 111 -242 206 -410 298 -65 36 -68 37 -61 15 32 -102 90 -193
244 -385 59 -72 123 -160 144 -195 l37 -64 -47 -3 c-78 -6 -329 18 -468 43
-132 25 -311 76 -420 122 -210 87 -460 241 -673 412 l-114 91 -43 -48 c-278
-309 -448 -663 -511 -1062 -23 -143 -22 -438 0 -584 35 -223 110 -465 199
-642 62 -122 177 -284 265 -373 l85 -84 -85 6 c-209 15 -369 91 -532 254 -238
238 -404 646 -462 1134 -18 158 -21 502 -5 664 36 356 124 679 262 964 206
427 499 718 865 861 207 81 326 100 604 95 189 -3 228 -6 325 -29z m1864 -588
c300 -612 530 -1514 592 -2319 15 -204 7 -701 -15 -859 -68 -492 -221 -854
-466 -1100 -177 -178 -387 -290 -650 -344 -109 -22 -332 -38 -428 -30 l-83 6
69 72 c38 39 79 90 91 113 19 39 71 212 71 240 0 6 -51 -27 -112 -73 -133 -99
-235 -155 -338 -183 -72 -20 -348 -71 -386 -71 -10 0 21 26 68 58 129 88 200
145 299 240 349 332 592 819 718 1440 66 327 105 676 141 1277 25 417 46 682
66 840 34 268 101 530 171 669 34 67 101 166 113 166 5 0 41 -64 79 -142z
m-2534 -1077 c140 -92 346 -194 473 -235 210 -68 392 -86 732 -75 102 4 255 7
341 8 l157 1 26 -72 c59 -168 86 -321 86 -493 0 -561 -314 -1005 -830 -1173
-260 -85 -458 -117 -685 -109 -128 4 -180 10 -259 31 -569 149 -823 720 -666
1499 47 231 155 538 271 768 l39 78 107 -81 c60 -45 153 -111 208 -147z"/>
<path d="M3665 3641 c-158 -39 -269 -263 -235 -474 19 -119 77 -211 168 -265
62 -36 155 -38 220 -4 176 93 257 375 163 567 -19 38 -50 80 -77 104 -63 55
-172 88 -239 72z"/>
<path d="M4964 3510 c-73 -17 -153 -90 -199 -180 -83 -163 -71 -362 30 -494
23 -30 35 -36 93 -46 107 -18 196 11 252 83 114 145 119 463 8 576 -54 55
-120 77 -184 61z"/>
</g>
</svg>
